<svg width="112" height="64" viewBox="0 0 112 64" fill="none" xmlns="http://www.w3.org/2000/svg">
<g id="logo" clip-path="url(#clip0_0_100)">
<path id="Vector" d="M42.739 11.6068C42.9559 11.6068 43.0644 11.6068 43.1729 11.4983L48.8136 30.3729C49.4644 32.4339 52.5017 34.061 56.1898 34.061C59.878 34.061 62.9153 32.4339 63.5661 30.3729L69.0983 11.4983C69.2068 11.4983 69.4237 11.4983 69.5322 11.4983C70.6169 11.4983 71.4847 10.6305 71.4847 9.54578C71.4847 8.46103 70.6169 7.59324 69.5322 7.59324C68.4475 7.59324 67.5797 8.46103 67.5797 9.54578C67.5797 10.3051 68.0136 10.9559 68.6644 11.2814L62.2644 25.0576L63.3492 6.50849C64.4339 6.50849 65.3017 5.64069 65.3017 4.55595C65.3017 3.4712 64.4339 2.60341 63.3492 2.60341C62.2644 2.60341 61.3966 3.4712 61.3966 4.55595C61.3966 5.42375 62.0475 6.18307 62.8068 6.40002L58.5763 24.5153L56.4068 4.66442C57.383 4.55595 58.0339 3.68815 58.0339 2.71188C58.0339 1.62713 57.1661 0.759338 56.0814 0.759338C54.9966 0.759338 54.1288 1.62713 54.1288 2.71188C54.1288 3.68815 54.8881 4.55595 55.7559 4.66442L53.6949 24.6237L49.5729 6.50849C50.4407 6.29154 50.983 5.53222 50.983 4.66442C50.983 3.57968 50.1153 2.71188 49.0305 2.71188C47.9458 2.71188 47.078 3.57968 47.078 4.66442C47.078 5.74917 47.9458 6.61697 49.0305 6.61697L50.1153 25.1661L43.7153 11.3898C44.3661 11.0644 44.8 10.4136 44.8 9.65425C44.8 8.56951 43.9322 7.70171 42.8475 7.70171C41.7627 7.70171 40.8949 8.56951 40.8949 9.65425C40.7864 10.739 41.6542 11.6068 42.739 11.6068ZM56.1898 28.7458C59.5525 28.7458 62.2644 29.6136 62.2644 30.6983C62.2644 31.7831 59.5525 32.6509 56.1898 32.6509C52.8271 32.6509 50.1153 31.7831 50.1153 30.6983C50.0068 29.6136 52.8271 28.7458 56.1898 28.7458Z" fill="white"/>
<g id="Group">
<path id="Union" fill-rule="evenodd" clip-rule="evenodd" d="M34.6035 41.9797C28.9628 41.9797 24.5153 46.5356 24.5153 51.9593C24.5153 57.3831 29.0713 61.939 34.6035 61.939C40.2442 61.939 44.6916 57.3831 44.6916 51.9593C44.6916 46.5356 40.2442 41.9797 34.6035 41.9797ZM38.834 57.7085C38.5086 58.1424 38.0747 58.5763 37.6408 58.9017C36.8814 59.4441 36.0136 59.878 35.1459 59.878H34.6035H34.0611C33.1933 59.878 32.3255 59.4441 31.5662 58.9017C31.1323 58.5763 30.6984 58.1424 30.373 57.7085C29.2882 56.2983 28.6374 54.2373 28.6374 51.9593C28.6374 49.7898 29.1797 47.9458 30.156 46.4271C30.6984 45.4509 31.4577 44.6915 32.5425 44.2576C32.5425 44.2576 32.6509 44.2576 32.6509 44.1492C32.7594 44.0407 32.8679 44.0407 33.0848 44.0407C33.5187 43.9322 34.0611 43.8237 34.495 43.8237C35.0374 43.8237 35.4713 43.9322 35.9052 44.0407C35.9594 44.0407 36.0408 44.0678 36.1221 44.0949C36.2035 44.122 36.2848 44.1492 36.3391 44.1492C36.3391 44.1492 36.4475 44.1492 36.4475 44.2576C37.4238 44.6915 38.2916 45.4509 38.834 46.4271C39.8103 47.8373 40.3526 49.7898 40.3526 51.9593C40.5696 54.2373 39.9187 56.2983 38.834 57.7085ZM21.261 59.8775L20.0678 56.2979C19.5254 54.6707 19.0915 54.0199 18.2237 53.1521C17.7566 52.685 17.0481 52.4592 16.4447 52.267C16.3475 52.236 16.253 52.2059 16.1627 52.1758C18.4407 51.8504 20.1763 49.7894 20.1763 47.4029C20.1763 44.7996 18.0068 42.6301 15.4034 42.6301H15.2949H8.02712H3.68814H1.08475V44.0402H3.68814V59.8775H0.976273V61.2877H7.91864H10.6305V59.8775H8.02712V52.2843H10.0881H10.3051H10.739C11.3898 52.2843 11.9322 52.3928 12.4746 52.5013C12.9085 52.6097 13.4508 52.8267 13.7763 53.0436C14.2102 53.369 14.7525 53.8029 15.1864 54.4538C15.2949 54.6707 15.4034 54.8877 15.5119 54.9962C16.2712 56.5148 16.8136 58.5758 17.3559 61.1792H20.6102H23.539V59.769L21.261 59.8775ZM12.583 50.8741H8.02712V44.0402H12.583C14.5356 44.1487 16.0542 45.4504 16.0542 47.4029C16.0542 49.3555 14.5356 50.7657 12.583 50.8741ZM63.3499 54.0199H64.7601V56.7318V61.2877H64.6516H64.5432H63.3499H47.1872V59.8775H49.8991V44.0402H47.1872V42.6301H53.9126H54.2381H56.9499V44.0402H54.2381V59.8775H55.8652H60.2042C61.9398 59.8775 63.3499 58.5758 63.3499 56.8402V54.0199ZM86.2373 42.7394H86.1288H81.7898H67.7966V44.1496H70.5084V59.9869H67.7966V61.3971H81.7898H84.9356H86.1288H86.2373H86.3457V56.8411V54.7801H84.9356V56.9496C84.9356 58.6852 83.5254 59.9869 81.7898 59.9869H76.8H74.8474H74.739V52.3937V52.0683H76.1491H77.0169C78.3186 52.0683 79.2949 53.153 79.2949 54.3462V55.1055V55.431H80.5966V55.3225V52.0683V50.875V47.7293V47.6208H79.2949V48.4886C79.2949 49.7903 78.3186 50.6581 77.0169 50.6581H76.1491H75.2813H74.739V43.9327H74.8474H78.861H78.9695H81.7898C83.5254 43.9327 84.8271 45.3428 84.9356 46.9699V48.9225H86.3457V47.0784L86.2373 42.7394ZM107.869 58.5304C108.833 59.594 109.188 59.986 110.426 59.986H111.076V61.3962H100.988V59.986H102.724C103.049 59.986 103.375 59.6606 103.375 59.3352C103.375 59.1182 103.375 59.0097 103.266 58.9013L102.724 58.2504L99.1443 53.6945L94.8053 58.9013C94.8053 58.9555 94.7782 59.0368 94.7511 59.1182C94.724 59.1996 94.6969 59.2809 94.6969 59.3352C94.6969 59.6606 95.0223 59.986 95.3477 59.986H97.0833H97.4087V61.3962H97.0833H94.5884H94.263H89.5986H89.2731V59.986H89.5986H90.4664C91.8416 59.986 92.1851 59.5734 93.2074 58.3457C93.2334 58.3144 93.2598 58.2827 93.2867 58.2504L98.168 52.3928L92.7443 45.5589C91.7681 44.4741 91.4426 44.1487 90.2494 44.0402H89.8155V42.6301H92.0935H96.324H99.2528V44.0402H97.6257C97.3002 44.0402 96.9748 44.3657 96.9748 44.6911C96.9748 44.908 96.9748 45.0165 97.0833 45.125L97.6257 45.8843L100.663 49.3555L104.243 45.0165C104.351 44.908 104.351 44.7996 104.351 44.6911C104.351 44.3657 104.026 44.0402 103.7 44.0402H102.182H101.965V42.6301H102.073H105.002H105.219H109.341H109.558V44.0402H109.341H108.473C107.098 44.0402 106.754 44.4529 105.732 45.6806L105.653 45.7758L101.531 50.6572L107.714 58.3589C107.767 58.4179 107.819 58.4751 107.869 58.5304Z" fill="url(#paint0_linear_0_100)"/>
</g>
</g>
<defs>
<linearGradient id="paint0_linear_0_100" x1="11.7704" y1="44.021" x2="22.9658" y2="90.3298" gradientUnits="userSpaceOnUse">
<stop stop-color="#DEC273"/>
<stop offset="1" stop-color="#6C4F25"/>
</linearGradient>
<clipPath id="clip0_0_100">
<rect width="111.729" height="64" fill="white"/>
</clipPath>
</defs>
</svg>
