<svg width="28" height="28" viewBox="0 0 28 28" fill="none" xmlns="http://www.w3.org/2000/svg">
<g id="heart">
<path id="Vector" d="M24.3133 5.37833C23.7174 4.78217 23.0099 4.30925 22.2312 3.98659C21.4525 3.66394 20.6179 3.49786 19.775 3.49786C18.9321 3.49786 18.0975 3.66394 17.3187 3.98659C16.54 4.30925 15.8325 4.78217 15.2367 5.37833L14 6.61499L12.7633 5.37833C11.5597 4.17469 9.9272 3.49849 8.225 3.49849C6.52279 3.49849 4.8903 4.17469 3.68666 5.37833C2.48302 6.58197 1.80682 8.21445 1.80682 9.91666C1.80682 11.6189 2.48302 13.2514 3.68666 14.455L4.92333 15.6917C9.53137 18.7866 11.4832 20.7923 14 24.7683C16.6571 20.4311 18.7144 18.5516 23.0767 15.6917L24.3133 14.455C24.9095 13.8591 25.3824 13.1516 25.7051 12.3729C26.0277 11.5942 26.1938 10.7596 26.1938 9.91666C26.1938 9.07376 26.0277 8.23911 25.7051 7.46041C25.3824 6.68171 24.9095 5.97421 24.3133 5.37833Z" fill="url(#paint0_linear_0_36)"/>
</g>
<defs>
<linearGradient id="paint0_linear_0_36" x1="4.1977" y1="5.67325" x2="30.0199" y2="27.8734" gradientUnits="userSpaceOnUse">
<stop stop-color="#EEDABC"/>
<stop offset="1" stop-color="#987952"/>
</linearGradient>
</defs>
</svg>
