<svg width="33" height="36" viewBox="0 0 33 36" fill="none" xmlns="http://www.w3.org/2000/svg">
<path id="Vector" d="M1.98992 11.6475C2.22287 11.6475 2.33934 11.6475 2.45581 11.531L8.51249 31.7976C9.21134 34.0106 12.4726 35.7577 16.4328 35.7577C20.3929 35.7577 23.6542 34.0106 24.353 31.7976L30.2932 11.531C30.4097 11.531 30.6427 11.531 30.7591 11.531C31.9239 11.531 32.8557 10.5992 32.8557 9.43444C32.8557 8.2697 31.9239 7.3379 30.7591 7.3379C29.5944 7.3379 28.6626 8.2697 28.6626 9.43444C28.6626 10.2498 29.1285 10.9486 29.8273 11.298L22.9553 26.0903L24.1201 6.17315C25.2848 6.17315 26.2166 5.24136 26.2166 4.07661C26.2166 2.91186 25.2848 1.98007 24.1201 1.98007C22.9553 1.98007 22.0235 2.91186 22.0235 4.07661C22.0235 5.00841 22.7224 5.82373 23.5377 6.05668L18.9952 25.5079L16.6657 4.19309C17.714 4.07661 18.4128 3.14481 18.4128 2.09654C18.4128 0.931797 17.481 0 16.3163 0C15.1515 0 14.2197 0.931797 14.2197 2.09654C14.2197 3.14481 15.0351 4.07661 15.9669 4.19309L13.7538 25.6244L9.32782 6.17315C10.2596 5.9402 10.842 5.12488 10.842 4.19309C10.842 3.02834 9.91019 2.09654 8.74544 2.09654C7.5807 2.09654 6.6489 3.02834 6.6489 4.19309C6.6489 5.35783 7.5807 6.28963 8.74544 6.28963L9.91019 26.2068L3.03819 11.4145C3.73704 11.0651 4.20293 10.3662 4.20293 9.55092C4.20293 8.38617 3.27114 7.45437 2.10639 7.45437C0.941646 7.45437 0.00985074 8.38617 0.00985074 9.55092C-0.106624 10.7157 0.825174 11.6475 1.98992 11.6475ZM16.4328 30.0504C20.0435 30.0504 22.9553 30.9822 22.9553 32.147C22.9553 33.3117 20.0435 34.2435 16.4328 34.2435C12.8221 34.2435 9.91019 33.3117 9.91019 32.147C9.79371 30.9822 12.8221 30.0504 16.4328 30.0504Z" fill="url(#paint0_linear_288_86)"/>
<defs>
<linearGradient id="paint0_linear_288_86" x1="3.22114" y1="3.65704" x2="44.2479" y2="31.9247" gradientUnits="userSpaceOnUse">
<stop stop-color="#DEC273"/>
<stop offset="1" stop-color="#6C4F25"/>
</linearGradient>
</defs>
</svg>
