<svg width="36" height="36" viewBox="0 0 36 36" fill="none" xmlns="http://www.w3.org/2000/svg">
<g id="Back">
<g id="Group 3455">
<g id="Vector">
<path fill-rule="evenodd" clip-rule="evenodd" d="M29.9051 18.1545C29.8873 18.1615 30.1979 18.5397 30.469 18.9514C30.5451 19.05 30.6073 19.1619 30.6679 19.2683L30.6919 19.3079L30.7121 19.3382L30.7129 19.3397C30.7502 19.3747 30.664 19.2931 30.6725 19.3017L30.6764 19.3087L30.7378 19.4158C30.7743 19.4881 30.8333 19.5619 30.8636 19.6263C30.8667 19.725 30.8962 19.7692 30.9117 19.8749C30.9467 19.9657 30.9319 20.0419 30.9568 20.1156L30.9576 20.1195C30.956 19.8857 30.9568 20.0558 30.9568 20.0046V20.0108L30.956 20.0271L30.9552 20.0605L30.9529 20.1281L30.949 20.2617C30.9513 20.3875 30.9327 20.3657 30.9327 20.3657C30.956 20.365 30.9319 20.4302 30.9304 20.5071C30.9079 20.5459 30.9086 20.636 30.8752 20.692C30.7859 20.7619 30.817 20.7502 30.8131 20.7828C30.8123 20.8154 30.7611 20.8333 30.7315 20.8675C30.6593 20.9156 30.5746 20.9599 30.4846 20.9871C30.4038 20.9995 30.3067 21.0221 30.2321 21.0127C30.0737 21.0057 29.9587 20.9537 29.9564 20.9591C29.9564 20.9591 29.9525 20.9863 29.9541 21.0391C29.9603 21.0888 29.9533 21.1844 30.0007 21.2753C30.0379 21.3778 30.1063 21.492 30.2205 21.6054C30.3339 21.711 30.4869 21.8197 30.6842 21.8842C30.7882 21.9083 30.8791 21.9409 31.0189 21.9424C31.1564 21.9448 31.3366 21.9129 31.3863 21.9121C31.6411 21.8624 31.8795 21.7071 32.104 21.5323C32.2896 21.332 32.4884 21.1246 32.5879 20.772C32.6438 20.6081 32.6943 20.4178 32.688 20.3619L32.6997 20.2283L32.7059 20.1615L32.7082 20.1281L32.7098 20.1118V19.9859L32.7075 19.9727C32.6578 19.6978 32.6073 19.4127 32.4698 19.1914C32.3704 18.9591 32.1684 18.7378 31.989 18.5553C31.9106 18.4931 31.8492 18.4535 31.7746 18.4085L31.669 18.3448L31.6628 18.3401C31.6706 18.3486 31.5836 18.2663 31.6193 18.3005L31.5618 18.2718L31.4927 18.2415C31.3125 18.1568 31.1401 18.0985 30.9762 18.0745C30.6562 18.0139 30.3665 18.0333 30.1964 18.0752C30.0154 18.1133 29.9051 18.1545 29.9051 18.1545Z" fill="url(#paint0_linear_0_41)"/>
<path fill-rule="evenodd" clip-rule="evenodd" d="M29.9051 18.1525C29.9051 18.1525 30.0154 18.1937 30.1964 18.2317C30.3665 18.2737 30.6562 18.2931 30.9762 18.2325C31.1401 18.2084 31.3125 18.1502 31.4927 18.0655L31.5618 18.0352L31.6193 18.0065C31.5836 18.0407 31.6706 17.9583 31.6628 17.9661L31.669 17.9622L31.7746 17.8985C31.8492 17.8535 31.9106 17.8139 31.989 17.7517C32.1684 17.5692 32.3704 17.3478 32.4698 17.1156C32.6073 16.8943 32.6578 16.6092 32.7075 16.3343L32.7098 16.321V16.1952L32.7082 16.1789L32.7059 16.1455L32.6997 16.0787L32.688 15.9451C32.6943 15.8892 32.6438 15.6989 32.5879 15.535C32.4884 15.1824 32.2896 14.975 32.104 14.7739C31.8795 14.5999 31.6411 14.4445 31.3863 14.3948C31.3366 14.3941 31.1564 14.3622 31.0189 14.3645C30.8791 14.3661 30.7882 14.3987 30.6842 14.4228C30.4869 14.4873 30.3339 14.596 30.2205 14.7016C30.1063 14.8143 30.0379 14.9292 30.0007 15.0317C29.9533 15.1226 29.9603 15.2181 29.9541 15.2678C29.9525 15.3207 29.9564 15.3478 29.9564 15.3478C29.9587 15.3533 30.0737 15.3012 30.2321 15.2943C30.3067 15.2849 30.4038 15.3067 30.4846 15.3199C30.5746 15.3471 30.6593 15.3913 30.7315 15.4395C30.7611 15.4737 30.8123 15.4915 30.8131 15.5242C30.817 15.5568 30.7859 15.5443 30.8752 15.615C30.9086 15.6702 30.9079 15.7603 30.9304 15.7999C30.9319 15.8768 30.956 15.942 30.9327 15.9412C30.9327 15.9412 30.9513 15.9195 30.949 16.0453L30.9529 16.1789L30.9552 16.2465L30.956 16.2799L30.9568 16.2962V16.3024C30.9568 16.2511 30.956 16.4212 30.9576 16.1875L30.9568 16.1913C30.9319 16.2651 30.9467 16.3412 30.9117 16.4321C30.8962 16.5377 30.8667 16.582 30.8636 16.6807C30.8333 16.7451 30.7743 16.8189 30.7378 16.8911L30.6764 16.9983L30.6725 17.0053C30.664 17.0139 30.7502 16.9323 30.7129 16.9673L30.7121 16.9688L30.6919 16.9991L30.6679 17.0379C30.6073 17.1451 30.5451 17.257 30.469 17.3556C30.1979 17.7673 29.8873 18.1455 29.9051 18.1525Z" fill="url(#paint1_linear_0_41)"/>
<path fill-rule="evenodd" clip-rule="evenodd" d="M8.01781 20.3784C8.01781 20.3784 8.73458 18.9234 7.34447 18.1412C7.34447 18.1412 8.79975 18.9449 9.82047 17.9459C8.79961 16.9467 7.34447 17.7503 7.34447 17.7503C8.73445 16.9682 8.01781 15.5133 8.01781 15.5133C7.63431 17.54 5.53231 17.8824 4.87214 17.94L4.67299 17.9399C4.67299 17.9399 4.7186 17.9402 4.7991 17.9457C4.7186 17.9513 4.67299 17.9519 4.67299 17.9519L4.872 17.9516C5.53244 18.0093 7.63431 18.3518 8.01781 20.3784Z" fill="url(#paint2_linear_0_41)"/>
<path fill-rule="evenodd" clip-rule="evenodd" d="M8.79451 15.0795C8.79451 15.0795 8.78111 15.0417 8.75616 14.9706C8.73752 14.8968 8.68347 14.8015 8.67807 14.6516C8.67284 14.5793 8.65574 14.491 8.66052 14.4025C8.66406 14.3139 8.67484 14.2175 8.68485 14.1123C8.70872 14.0105 8.73444 13.9022 8.76155 13.788C8.8002 13.6782 8.84733 13.5636 8.89846 13.4435C9.01658 13.2154 9.16335 12.9719 9.36433 12.7509L9.43933 12.6663L9.47799 12.6243L9.49755 12.6032L9.53512 12.5709C9.58687 12.525 9.63939 12.4786 9.69237 12.4318C9.79986 12.3375 9.90366 12.2439 10.0247 12.1503C10.2839 11.9699 10.5694 11.7737 10.8312 11.6274C11.0931 11.4749 11.359 11.3202 11.625 11.1654C11.736 11.0956 11.8962 11.0026 11.9965 10.9285C12.1106 10.8532 12.2229 10.7684 12.3344 10.6849C12.544 10.5092 12.7443 10.3325 12.8963 10.1365C13.0466 9.93749 13.1709 9.74637 13.2501 9.51874C13.2775 9.4365 13.3081 9.32731 13.3195 9.22228C13.3376 9.11709 13.3376 9.01268 13.336 8.91134C13.3286 8.70867 13.2904 8.51924 13.2281 8.36015C13.1637 8.20244 13.083 8.07154 13.0004 7.97174C12.9154 7.87595 12.8357 7.80295 12.7751 7.76244C12.7135 7.71963 12.6809 7.69684 12.6809 7.69684C12.6809 7.69684 12.7211 7.70223 12.7962 7.71209C12.8711 7.72564 12.9847 7.75213 13.1169 7.82266C13.2469 7.89381 13.403 8.00223 13.5384 8.17026C13.6761 8.33535 13.801 8.55173 13.8778 8.81062C13.9156 8.94014 13.9451 9.07936 13.9568 9.22721C13.9727 9.37521 13.9651 9.52629 13.9408 9.7074C13.8951 10.0036 13.7643 10.3281 13.5906 10.6151C13.5436 10.6855 13.4963 10.7562 13.4488 10.8275C13.3989 10.8968 13.3417 10.9586 13.2874 11.0249C13.1806 11.1612 13.0533 11.2713 12.9291 11.3899C12.7996 11.4979 12.6724 11.6109 12.5267 11.708C12.3758 11.8182 12.2658 11.8835 12.1129 11.9813C11.8323 12.1369 11.5468 12.2989 11.2791 12.4322C11.023 12.5658 10.771 12.6973 10.5271 12.8245C10.4054 12.8944 10.285 12.9828 10.1649 13.0552C10.1051 13.0931 10.046 13.1307 9.98744 13.1676L9.97651 13.1746L9.97097 13.178C9.9782 13.1719 9.95094 13.1937 9.98667 13.165L9.98436 13.1667L9.9665 13.1809L9.93092 13.2094L9.85885 13.2645C9.66495 13.4097 9.50663 13.5764 9.36248 13.7362C9.29718 13.8215 9.23496 13.9035 9.17552 13.9814C9.12423 14.066 9.07557 14.1463 9.02983 14.222C8.99518 14.3019 8.96514 14.3791 8.93018 14.4507C8.89676 14.5226 8.88722 14.5885 8.86612 14.6515C8.82207 14.7747 8.82161 14.8928 8.81006 14.9651C8.80005 15.0397 8.79451 15.0795 8.79451 15.0795Z" fill="url(#paint3_linear_0_41)"/>
<path fill-rule="evenodd" clip-rule="evenodd" d="M8.94629 21.8729C8.94629 21.8729 8.95168 21.9128 8.96185 21.9876C8.97324 22.0597 8.97386 22.1777 9.01791 22.3009C9.03901 22.3642 9.04855 22.4298 9.08197 22.5017C9.11678 22.5734 9.14681 22.6506 9.18162 22.7307C9.2272 22.8062 9.27602 22.8864 9.32715 22.9711C9.3866 23.049 9.44897 23.1308 9.51412 23.2163C9.65827 23.3761 9.81659 23.5428 10.0105 23.688L10.0826 23.7431L10.1183 23.7715L10.136 23.7858L10.1383 23.7875C10.1027 23.7587 10.13 23.7804 10.1228 23.7747L10.1283 23.7781L10.1392 23.785C10.1978 23.822 10.2567 23.8594 10.3166 23.8971C10.4366 23.9697 10.5571 24.0581 10.679 24.128C10.9227 24.2552 11.1746 24.3867 11.4307 24.5203C11.6984 24.6536 11.9841 24.8158 12.2647 24.9713C12.4175 25.069 12.5276 25.1341 12.6785 25.2444C12.824 25.3416 12.9512 25.4546 13.0808 25.5626C13.2049 25.6812 13.3323 25.7913 13.439 25.9276C13.4934 25.9939 13.5505 26.0557 13.6004 26.125C13.6481 26.1962 13.6954 26.2672 13.7424 26.3372C13.9159 26.6245 14.047 26.9489 14.0924 27.2451C14.1169 27.4264 14.1243 27.5773 14.1085 27.7253C14.0969 27.873 14.0672 28.0124 14.0296 28.1417C13.9528 28.4009 13.8279 28.6173 13.69 28.7822C13.5546 28.9503 13.3986 29.0588 13.2685 29.1298C13.1365 29.2005 13.0229 29.2267 12.948 29.2406C12.8727 29.2503 12.8325 29.2557 12.8325 29.2557C12.8325 29.2557 12.8655 29.2329 12.9268 29.1901C12.9874 29.1497 13.0671 29.0766 13.1521 28.9808C13.2346 28.881 13.3153 28.7501 13.3797 28.5924C13.4421 28.4333 13.4804 28.2437 13.4877 28.0412C13.4892 27.9398 13.4892 27.8354 13.4713 27.7304C13.4599 27.625 13.4291 27.516 13.4019 27.4339C13.3227 27.2063 13.1986 27.015 13.048 26.816C12.8961 26.6198 12.6956 26.4433 12.486 26.2676C12.3745 26.1841 12.2624 26.0994 12.1483 26.0238C12.048 25.9497 11.8877 25.8569 11.7766 25.7871C11.5107 25.6323 11.2447 25.4776 10.9829 25.3251C10.7212 25.1786 10.4355 24.9826 10.1763 24.8022C10.0556 24.7086 9.9515 24.615 9.844 24.5207C9.79102 24.4739 9.73866 24.4277 9.68691 24.3818L9.64918 24.3493L9.62962 24.3282L9.59112 24.286L9.51597 24.2016C9.31514 23.9808 9.16822 23.7371 9.05025 23.5089C8.99912 23.3891 8.95199 23.2742 8.91318 23.1645C8.88623 23.0504 8.86067 22.942 8.83649 22.8402C8.82648 22.735 8.81569 22.6386 8.81231 22.5499C8.80753 22.4613 8.82447 22.3732 8.82971 22.3009C8.8351 22.151 8.88916 22.0557 8.90779 21.9819C8.93289 21.9109 8.94629 21.8729 8.94629 21.8729Z" fill="url(#paint4_linear_0_41)"/>
<path fill-rule="evenodd" clip-rule="evenodd" d="M10.5438 11.2609C10.5438 11.2609 10.5643 11.1986 10.6093 11.0966C10.635 11.0469 10.6524 10.9811 10.7003 10.9181C10.7473 10.8536 10.8029 10.7786 10.8719 10.7004C10.9396 10.623 11.0145 10.5562 11.0981 10.4803C11.1817 10.404 11.2703 10.3401 11.3649 10.269C11.4554 10.2009 11.5567 10.131 11.6467 10.0669C11.7391 10.0004 11.8306 9.93417 11.9167 9.86563C12.002 9.79818 12.0811 9.72764 12.1524 9.65634C12.2191 9.58596 12.2912 9.50433 12.3329 9.43919C12.3645 9.38975 12.3947 9.33831 12.4056 9.31044C12.4226 9.27686 12.4423 9.24422 12.4541 9.20094C12.4862 9.11993 12.5037 9.03861 12.517 8.961C12.5197 8.92249 12.5211 8.88507 12.5259 8.84734C12.5239 8.81084 12.5219 8.77619 12.5202 8.74369C12.5173 8.67516 12.4939 8.62187 12.4846 8.56797C12.4398 8.46894 12.4141 8.41242 12.4141 8.41242C12.4141 8.41242 12.4287 8.41935 12.456 8.43183C12.4819 8.44661 12.5267 8.46432 12.5755 8.4999C12.6142 8.54102 12.6816 8.58753 12.7227 8.66222C12.7449 8.69857 12.7702 8.73861 12.7939 8.78266C12.8114 8.82763 12.8262 8.87691 12.843 8.92912C12.8684 9.03338 12.8877 9.15274 12.8769 9.27779C12.8754 9.39483 12.8247 9.57456 12.7871 9.66204C12.729 9.80295 12.6564 9.91199 12.5666 10.0233C12.4785 10.1327 12.3756 10.226 12.2713 10.3124C12.1638 10.3934 12.0559 10.4687 11.9455 10.5317C11.8335 10.5984 11.7309 10.6489 11.626 10.7005C11.5242 10.7484 11.4257 10.7946 11.3322 10.8385C11.244 10.8833 11.1475 10.9187 11.0733 10.9569C11.0023 10.9971 10.9296 11.0304 10.8628 11.0621C10.7972 11.0954 10.7431 11.1411 10.6957 11.1692C10.6022 11.2303 10.5438 11.2609 10.5438 11.2609Z" fill="url(#paint5_linear_0_41)"/>
<path fill-rule="evenodd" clip-rule="evenodd" d="M10.6326 25.7109C10.6326 25.7109 10.691 25.7415 10.7845 25.8027C10.8319 25.8307 10.8859 25.8764 10.9517 25.9095C11.0184 25.9414 11.0911 25.9747 11.1621 26.0149C11.2365 26.0529 11.3327 26.0885 11.421 26.1333C11.5144 26.1772 11.613 26.2234 11.7148 26.2713C11.8197 26.3229 11.9223 26.3734 12.0342 26.4401C12.1448 26.5029 12.2528 26.5782 12.3601 26.6594C12.4644 26.7458 12.5674 26.839 12.6553 26.9485C12.7451 27.0598 12.8178 27.1689 12.8759 27.3098C12.9136 27.3974 12.9641 27.577 12.9657 27.694C12.9764 27.8191 12.9572 27.9384 12.9318 28.0427C12.915 28.0949 12.9002 28.1442 12.8826 28.1892C12.8589 28.2332 12.8338 28.2731 12.8115 28.3096C12.7705 28.3841 12.7029 28.4308 12.6643 28.4719C12.6156 28.5073 12.5706 28.5252 12.5448 28.54C12.5177 28.5526 12.503 28.5592 12.503 28.5592C12.503 28.5592 12.5286 28.5029 12.5734 28.4038C12.5826 28.3499 12.6061 28.2967 12.609 28.2281C12.6107 28.1956 12.6127 28.161 12.6147 28.1245C12.6099 28.0867 12.6087 28.0492 12.6059 28.011C12.5925 27.9332 12.5749 27.8519 12.5429 27.7709C12.531 27.7276 12.5113 27.6949 12.4944 27.6614C12.4835 27.6335 12.4533 27.5821 12.4217 27.5326C12.38 27.4675 12.3079 27.3859 12.2412 27.3155C12.1699 27.2442 12.0907 27.1736 12.0054 27.1062C11.9195 27.0378 11.8279 26.9714 11.7354 26.9049C11.6455 26.8408 11.5442 26.7709 11.4536 26.7028C11.3591 26.6317 11.2705 26.5678 11.1869 26.4915C11.1032 26.4156 11.0286 26.3489 10.9606 26.2715C10.8916 26.1932 10.8362 26.1181 10.7891 26.0537C10.7412 25.9907 10.7238 25.9249 10.6981 25.8752C10.6532 25.7734 10.6326 25.7109 10.6326 25.7109Z" fill="url(#paint6_linear_0_41)"/>
<path fill-rule="evenodd" clip-rule="evenodd" d="M7.36906 14.3438C6.79685 14.7008 6.13226 14.8526 5.47994 15.0234C4.82741 15.194 4.13513 15.5053 3.86794 16.1247C3.57751 16.7977 3.99287 17.6794 4.69635 17.884L4.68874 17.8988C3.98526 18.1034 3.5699 18.9851 3.86012 19.6579C4.12731 20.2773 4.81958 20.5886 5.47212 20.7592C6.12465 20.9302 6.78924 21.082 7.36145 21.439C9.23408 22.6082 9.34484 25.4775 9.37803 26.8449L0.483093 17.95L9.2698 9.48496C9.26134 10.8158 9.14847 13.2328 7.36906 14.3438Z" fill="url(#paint7_linear_0_41)"/>
<path d="M30.7013 17.3454C30.7013 17.3454 21.5893 17.3454 21.0923 17.3454C20.5953 17.3454 20.264 17.0141 20.264 17.0141C20.264 17.0141 19.9326 17.3454 19.6013 17.3454C19.2699 17.3454 9.82667 17.3454 9.82667 17.3454L9.16399 17.6768V18.3394L9.82667 18.6708C9.82667 18.6708 19.2699 18.6708 19.6013 18.6708C19.9326 18.6708 20.264 19.0021 20.264 19.0021C20.264 19.0021 20.5953 18.6708 21.0923 18.6708C21.5893 18.6708 30.7013 18.6708 30.7013 18.6708V17.3454Z" fill="url(#paint8_linear_0_41)"/>
</g>
</g>
</g>
<defs>
<linearGradient id="paint0_linear_0_41" x1="3.64257" y1="9.90172" x2="29.9428" y2="39.382" gradientUnits="userSpaceOnUse">
<stop stop-color="#EEDABC"/>
<stop offset="1" stop-color="#987952"/>
</linearGradient>
<linearGradient id="paint1_linear_0_41" x1="3.64257" y1="9.90172" x2="29.9428" y2="39.382" gradientUnits="userSpaceOnUse">
<stop stop-color="#EEDABC"/>
<stop offset="1" stop-color="#987952"/>
</linearGradient>
<linearGradient id="paint2_linear_0_41" x1="3.64257" y1="9.90172" x2="29.9428" y2="39.382" gradientUnits="userSpaceOnUse">
<stop stop-color="#EEDABC"/>
<stop offset="1" stop-color="#987952"/>
</linearGradient>
<linearGradient id="paint3_linear_0_41" x1="3.64257" y1="9.90172" x2="29.9428" y2="39.382" gradientUnits="userSpaceOnUse">
<stop stop-color="#EEDABC"/>
<stop offset="1" stop-color="#987952"/>
</linearGradient>
<linearGradient id="paint4_linear_0_41" x1="3.64257" y1="9.90172" x2="29.9428" y2="39.382" gradientUnits="userSpaceOnUse">
<stop stop-color="#EEDABC"/>
<stop offset="1" stop-color="#987952"/>
</linearGradient>
<linearGradient id="paint5_linear_0_41" x1="3.64257" y1="9.90172" x2="29.9428" y2="39.382" gradientUnits="userSpaceOnUse">
<stop stop-color="#EEDABC"/>
<stop offset="1" stop-color="#987952"/>
</linearGradient>
<linearGradient id="paint6_linear_0_41" x1="3.64257" y1="9.90172" x2="29.9428" y2="39.382" gradientUnits="userSpaceOnUse">
<stop stop-color="#EEDABC"/>
<stop offset="1" stop-color="#987952"/>
</linearGradient>
<linearGradient id="paint7_linear_0_41" x1="3.64257" y1="9.90172" x2="29.9428" y2="39.382" gradientUnits="userSpaceOnUse">
<stop stop-color="#EEDABC"/>
<stop offset="1" stop-color="#987952"/>
</linearGradient>
<linearGradient id="paint8_linear_0_41" x1="3.64257" y1="9.90172" x2="29.9428" y2="39.382" gradientUnits="userSpaceOnUse">
<stop stop-color="#EEDABC"/>
<stop offset="1" stop-color="#987952"/>
</linearGradient>
</defs>
</svg>
