<svg width="28" height="29" viewBox="0 0 28 29" fill="none" xmlns="http://www.w3.org/2000/svg">
<g id="Frame 1000000878">
<g id="Group 3459">
<path id="Union" fill-rule="evenodd" clip-rule="evenodd" d="M18.1417 17.8178C20.3164 16.1261 21.7155 13.4842 21.7155 10.5155C21.7155 5.40903 17.5759 1.26941 12.4694 1.26941C7.36289 1.26941 3.22327 5.40903 3.22327 10.5155C3.22327 15.622 7.36289 19.7616 12.4694 19.7616C13.868 19.7616 15.1941 19.4511 16.3825 18.8952L20.0284 25.2102C20.1305 25.4294 20.0516 25.7156 19.7916 26.069C19.5452 26.4038 19.1839 26.7087 18.7077 26.9836L18.5153 27.0947L18.3505 27.1899L18.4199 27.3102L20.5356 26.0887L20.6181 26.0411L22.2392 25.1052L22.3216 25.0576L24.4373 23.8361L24.3678 23.7157L24.1755 23.8268L24.0106 23.922C23.5343 24.1969 23.0805 24.3627 22.6491 24.4192C22.2314 24.4571 21.9531 24.3771 21.8144 24.179L18.1417 17.8178ZM12.4694 17.9089C8.38612 17.9089 5.07598 14.5988 5.07598 10.5155C5.07598 6.43226 8.38612 3.12212 12.4694 3.12212C16.5526 3.12212 19.8628 6.43226 19.8628 10.5155C19.8628 14.5988 16.5526 17.9089 12.4694 17.9089Z" fill="url(#paint0_linear_0_55)"/>
</g>
</g>
<defs>
<linearGradient id="paint0_linear_0_55" x1="5.30307" y1="3.93267" x2="33.7522" y2="21.3115" gradientUnits="userSpaceOnUse">
<stop stop-color="#EEDABC"/>
<stop offset="1" stop-color="#987952"/>
</linearGradient>
</defs>
</svg>
