<svg width="28" height="29" viewBox="0 0 28 29" fill="none" xmlns="http://www.w3.org/2000/svg">
<g id="Frame 1000000879" clip-path="url(#clip0_0_49)">
<g id="Group 3460">
<path id="I" d="M0.957321 23.6065L26.9373 23.6065V25.0523L0.957321 25.0523L0.957321 23.6065ZM24.228 24.9856H26.9373V26.765H26.5662C26.5662 26.765 26.5662 26.7206 26.5662 26.6316C26.5662 26.5278 26.5662 26.4759 26.5662 26.4759C26.5662 26.0903 26.3435 25.7641 25.8981 25.4972C25.428 25.2154 24.8713 25.0672 24.228 25.0523V24.9856ZM3.66666 24.9856V25.0523C3.02335 25.0672 2.47901 25.2154 2.03364 25.4972C1.56352 25.7641 1.32846 26.0903 1.32846 26.4759C1.32846 26.4759 1.32846 26.5278 1.32846 26.6316C1.32846 26.7206 1.32846 26.765 1.32846 26.765H0.957322L0.957321 24.9856H3.66666ZM24.228 23.6733V23.6065C24.8713 23.5917 25.428 23.4508 25.8981 23.1839C26.3435 22.9022 26.5662 22.5685 26.5662 22.183C26.5662 22.183 26.5662 22.1385 26.5662 22.0495C26.5662 21.9605 26.5662 21.9086 26.5662 21.8938L26.9373 21.8938L26.9373 23.6733L24.228 23.6733ZM3.66666 23.6733L0.957321 23.6733L0.957321 21.8938L1.32846 21.8938C1.32846 21.9086 1.32846 21.9605 1.32846 22.0495C1.32846 22.1385 1.32846 22.183 1.32846 22.183C1.32846 22.5685 1.56352 22.9022 2.03364 23.1839C2.47901 23.4508 3.02335 23.5917 3.66666 23.6065V23.6733Z" fill="url(#paint0_linear_0_49)"/>
<path id="I_2" d="M0.957321 17.1115L26.9373 17.1115V18.5573L0.957321 18.5573L0.957321 17.1115ZM24.228 18.4906H26.9373V20.2701H26.5662C26.5662 20.2701 26.5662 20.2256 26.5662 20.1366C26.5662 20.0328 26.5662 19.9809 26.5662 19.9809C26.5662 19.5953 26.3435 19.2691 25.8981 19.0022C25.428 18.7204 24.8713 18.5722 24.228 18.5573V18.4906ZM3.66666 18.4906V18.5573C3.02335 18.5722 2.47901 18.7204 2.03364 19.0022C1.56352 19.2691 1.32846 19.5953 1.32846 19.9809C1.32846 19.9809 1.32846 20.0328 1.32846 20.1366C1.32846 20.2256 1.32846 20.2701 1.32846 20.2701H0.957322L0.957321 18.4906H3.66666ZM24.228 17.1783V17.1115C24.8713 17.0967 25.428 16.9558 25.8981 16.6889C26.3435 16.4072 26.5662 16.0735 26.5662 15.688C26.5662 15.688 26.5662 15.6435 26.5662 15.5545C26.5662 15.4655 26.5662 15.4136 26.5662 15.3988L26.9373 15.3988L26.9373 17.1783L24.228 17.1783ZM3.66666 17.1783L0.957321 17.1783L0.957321 15.3988L1.32846 15.3988C1.32846 15.4136 1.32846 15.4655 1.32846 15.5545C1.32846 15.6435 1.32846 15.688 1.32846 15.688C1.32846 16.0735 1.56352 16.4072 2.03364 16.6889C2.47901 16.9558 3.02335 17.0967 3.66666 17.1115V17.1783Z" fill="url(#paint1_linear_0_49)"/>
<path id="I_3" d="M0.957321 10.6165L26.9373 10.6165V12.0623L0.957321 12.0623L0.957321 10.6165ZM24.228 11.9956H26.9373V13.7751H26.5662C26.5662 13.7751 26.5662 13.7306 26.5662 13.6416C26.5662 13.5378 26.5662 13.4859 26.5662 13.4859C26.5662 13.1003 26.3435 12.7741 25.8981 12.5072C25.428 12.2255 24.8713 12.0772 24.228 12.0623V11.9956ZM3.66666 11.9956V12.0623C3.02335 12.0772 2.47901 12.2255 2.03364 12.5072C1.56352 12.7741 1.32846 13.1003 1.32846 13.4859C1.32846 13.4859 1.32846 13.5378 1.32846 13.6416C1.32846 13.7306 1.32846 13.7751 1.32846 13.7751H0.957322L0.957321 11.9956H3.66666ZM24.228 10.6833V10.6165C24.8713 10.6017 25.428 10.4608 25.8981 10.1939C26.3435 9.91216 26.5662 9.57852 26.5662 9.19297C26.5662 9.19297 26.5662 9.14848 26.5662 9.05951C26.5662 8.97054 26.5662 8.91864 26.5662 8.90381L26.9373 8.90381L26.9373 10.6833L24.228 10.6833ZM3.66666 10.6833L0.957321 10.6833L0.957321 8.90381L1.32846 8.90381C1.32846 8.91864 1.32846 8.97054 1.32846 9.05951C1.32846 9.14848 1.32846 9.19297 1.32846 9.19297C1.32846 9.57852 1.56352 9.91217 2.03364 10.1939C2.47901 10.4608 3.02335 10.6017 3.66666 10.6165V10.6833Z" fill="url(#paint2_linear_0_49)"/>
<path id="I_4" d="M0.957321 4.12154L26.9373 4.12154V5.56734L0.957321 5.56734L0.957321 4.12154ZM24.228 5.50061H26.9373V7.28006H26.5662C26.5662 7.28006 26.5662 7.23558 26.5662 7.1466C26.5662 7.0428 26.5662 6.9909 26.5662 6.9909C26.5662 6.60535 26.3435 6.27912 25.8981 6.0122C25.428 5.73046 24.8713 5.58217 24.228 5.56734V5.50061ZM3.66666 5.50061V5.56734C3.02335 5.58217 2.47901 5.73046 2.03364 6.0122C1.56352 6.27912 1.32846 6.60535 1.32846 6.9909C1.32846 6.9909 1.32846 7.0428 1.32846 7.14661C1.32846 7.23558 1.32846 7.28006 1.32846 7.28006H0.957322L0.957321 5.50061H3.66666ZM24.228 4.18827V4.12154C24.8713 4.10671 25.428 3.96583 25.8981 3.69892C26.3435 3.41717 26.5662 3.08352 26.5662 2.69797C26.5662 2.69797 26.5662 2.65349 26.5662 2.56452C26.5662 2.47554 26.5662 2.42364 26.5662 2.40881L26.9373 2.40881L26.9373 4.18827L24.228 4.18827ZM3.66666 4.18827L0.957321 4.18827L0.957321 2.40881L1.32846 2.40881C1.32846 2.42364 1.32846 2.47554 1.32846 2.56452C1.32846 2.65349 1.32846 2.69798 1.32846 2.69798C1.32846 3.08352 1.56352 3.41717 2.03364 3.69892C2.47901 3.96583 3.02335 4.10671 3.66666 4.12154V4.18827Z" fill="url(#paint3_linear_0_49)"/>
</g>
</g>
<defs>
<linearGradient id="paint0_linear_0_49" x1="3.50438" y1="22.392" x2="6.31958" y2="33.6507" gradientUnits="userSpaceOnUse">
<stop stop-color="#EEDABC"/>
<stop offset="1" stop-color="#987952"/>
</linearGradient>
<linearGradient id="paint1_linear_0_49" x1="3.50438" y1="15.897" x2="6.31958" y2="27.1557" gradientUnits="userSpaceOnUse">
<stop stop-color="#EEDABC"/>
<stop offset="1" stop-color="#987952"/>
</linearGradient>
<linearGradient id="paint2_linear_0_49" x1="3.50438" y1="9.402" x2="6.31958" y2="20.6607" gradientUnits="userSpaceOnUse">
<stop stop-color="#EEDABC"/>
<stop offset="1" stop-color="#987952"/>
</linearGradient>
<linearGradient id="paint3_linear_0_49" x1="3.50438" y1="2.90701" x2="6.31958" y2="14.1657" gradientUnits="userSpaceOnUse">
<stop stop-color="#EEDABC"/>
<stop offset="1" stop-color="#987952"/>
</linearGradient>
<clipPath id="clip0_0_49">
<rect width="27.712" height="27.712" fill="white" transform="translate(0.093338 0.459717)"/>
</clipPath>
</defs>
</svg>
