<svg width="116" height="28" viewBox="0 0 116 28" fill="none" xmlns="http://www.w3.org/2000/svg">
<g id="paypal 1">
<g clip-path="url(#clip0_236_77)">
<g id="Group">
<g id="Group_2">
<g id="Clip path group">
<mask id="mask0_236_77" style="mask-type:luminance" maskUnits="userSpaceOnUse" x="-5" y="-5" width="127" height="38">
<g id="a">
<path id="Vector" d="M-4.3125 -4.5568H121.76V32.1601H-4.3125V-4.5568Z" fill="white"/>
</g>
</mask>
<g mask="url(#mask0_236_77)">
<g id="Group_3">
<g id="Group_4">
<path id="Vector_2" d="M21.7203 2.65556C20.3761 1.28191 17.9462 0.693002 14.8377 0.693002H5.8159C5.17991 0.693002 4.63949 1.10769 4.53991 1.66996L0.783433 23.0299C0.708753 23.451 1.07252 23.8326 1.5487 23.8326H7.11838L8.51722 15.878L8.47386 16.1271C8.57343 15.5648 9.10984 15.1501 9.74503 15.1501H12.3917C17.5912 15.1501 21.6625 13.2567 22.8518 7.77937C22.8871 7.61739 22.9176 7.45972 22.9441 7.30565C23.2982 5.28118 22.9417 3.90322 21.7203 2.65556Z" fill="#003087"/>
</g>
<g id="Group_5">
<path id="Vector_3" d="M89.9046 12.8204C89.5642 14.8247 87.857 14.8247 86.2052 14.8247H85.2656L85.9249 11.0825C85.9643 10.8564 86.1819 10.6901 86.4372 10.6901H86.8685C87.9927 10.6901 89.0542 10.6901 89.6019 11.2639C89.9295 11.6073 90.0283 12.117 89.9046 12.8204ZM89.1859 7.59076H82.9578C82.5314 7.59076 82.1692 7.86866 82.1026 8.2459L79.5843 22.5641C79.5346 22.8463 79.7787 23.1019 80.0967 23.1019H83.2926C83.5906 23.1019 83.8443 22.9075 83.8909 22.644L84.6056 18.5842C84.6714 18.207 85.0344 17.9291 85.46 17.9291H87.4306C91.5331 17.9291 93.9012 16.1494 94.5195 12.621C94.7982 11.0789 94.5308 9.86649 93.7254 9.01768C92.8396 8.08464 91.2697 7.59076 89.1859 7.59076Z" fill="#009CDE"/>
</g>
<g id="Group_6">
<path id="Vector_4" d="M45.4837 12.8204C45.1433 14.8247 43.4361 14.8247 41.7843 14.8247H40.8448L41.504 11.0825C41.5434 10.8564 41.761 10.6901 42.0164 10.6901H42.4476C43.5718 10.6901 44.6334 10.6901 45.181 11.2639C45.5086 11.6073 45.6074 12.117 45.4837 12.8204ZM44.7651 7.59076H38.5369C38.1105 7.59076 37.7484 7.86866 37.6817 8.2459L35.1635 22.5641C35.1137 22.8463 35.357 23.1019 35.6758 23.1019H38.6501C39.0757 23.1019 39.4379 22.824 39.5045 22.4474L40.1847 18.5842C40.2505 18.207 40.6135 17.9291 41.0391 17.9291H43.0097C47.1123 17.9291 49.4803 16.1494 50.0986 12.621C50.3773 11.0789 50.1099 9.86649 49.3045 9.01768C48.4188 8.08464 46.8489 7.59076 44.7651 7.59076Z" fill="#003087"/>
</g>
<g id="Group_7">
<path id="Vector_5" d="M59.2241 17.9608C58.9358 19.4885 57.5835 20.5144 55.8579 20.5144C54.993 20.5144 54.3 20.2646 53.8552 19.7923C53.4143 19.3243 53.2481 18.657 53.3878 17.9147C53.656 16.3999 55.0308 15.3416 56.7299 15.3416C57.5771 15.3416 58.2645 15.5936 58.7182 16.0702C59.1751 16.5504 59.355 17.2214 59.2241 17.9608ZM63.3805 12.7563H60.3981C60.1427 12.7563 59.9251 12.9226 59.885 13.1494L59.7541 13.8967L59.5461 13.626C58.8997 12.7859 57.4599 12.5044 56.0225 12.5044C52.7277 12.5044 49.9132 14.7434 49.3655 17.883C49.0805 19.4496 49.4852 20.9464 50.4761 21.991C51.3859 22.9507 52.6844 23.3503 54.2318 23.3503C56.8881 23.3503 58.3609 21.8211 58.3609 21.8211L58.2276 22.5641C58.1778 22.8463 58.4211 23.1019 58.7407 23.1019H61.4259C61.8523 23.1019 62.2145 22.8247 62.2812 22.4474L63.8936 13.2941C63.9434 13.0119 63.6993 12.7563 63.3805 12.7563Z" fill="#003087"/>
</g>
<g id="Group_8">
<path id="Vector_6" d="M103.644 17.9608C103.356 19.4885 102.004 20.5144 100.278 20.5144C99.4131 20.5144 98.7201 20.2646 98.2752 19.7923C97.8336 19.3243 97.6681 18.657 97.8079 17.9147C98.0761 16.3999 99.4508 15.3416 101.15 15.3416C101.997 15.3416 102.685 15.5936 103.138 16.0702C103.595 16.5504 103.775 17.2214 103.644 17.9608ZM107.801 12.7563H104.818C104.563 12.7563 104.345 12.9226 104.305 13.1494L104.174 13.8967L103.965 13.626C103.32 12.7859 101.88 12.5044 100.443 12.5044C97.1478 12.5044 94.3332 14.7434 93.7856 17.883C93.5005 19.4496 93.9052 20.9464 94.8961 21.991C95.806 22.9507 97.1044 23.3503 98.6518 23.3503C101.308 23.3503 102.781 21.8211 102.781 21.8211L102.648 22.5641C102.598 22.8463 102.841 23.1019 103.161 23.1019H105.846C106.272 23.1019 106.635 22.8247 106.701 22.4474L108.314 13.2941C108.363 13.0119 108.119 12.7563 107.801 12.7563Z" fill="#009CDE"/>
</g>
<g id="Group_9">
<path id="Vector_7" d="M79.2648 12.7563H76.2672C75.9805 12.7563 75.7123 12.8838 75.5517 13.0969L71.4162 18.5569L69.664 13.31C69.554 12.9817 69.2167 12.7563 68.8345 12.7563H65.8883C65.5325 12.7563 65.282 13.0702 65.3968 13.3719L68.6972 22.0587L65.5928 25.986C65.3494 26.2941 65.5952 26.7203 66.0167 26.7203H69.0112C69.2946 26.7203 69.5604 26.5957 69.7226 26.387L79.6912 13.4871C79.9297 13.1782 79.684 12.7563 79.2648 12.7563Z" fill="#003087"/>
</g>
<g id="Group_10">
<path id="Vector_8" d="M111.321 7.98385L108.765 22.5641C108.715 22.8463 108.958 23.1019 109.277 23.1019H111.848C112.274 23.1019 112.637 22.824 112.703 22.4467L115.224 8.12855C115.273 7.84634 115.03 7.59076 114.71 7.59076H111.834C111.578 7.59076 111.36 7.75706 111.321 7.98385Z" fill="#009CDE"/>
</g>
<g id="Group_11">
<path id="Vector_9" d="M21.7203 2.65556C20.3761 1.28191 17.9462 0.693002 14.8377 0.693002H5.8159C5.17991 0.693002 4.63949 1.10769 4.53991 1.66996L0.783433 23.0299C0.708753 23.451 1.07252 23.8326 1.5487 23.8326H7.11838L8.51722 15.878L8.47386 16.1271C8.57343 15.5648 9.10984 15.1501 9.74503 15.1501H12.3917C17.5912 15.1501 21.6625 13.2567 22.8518 7.77937C22.8871 7.61739 22.9176 7.45972 22.9441 7.30565C23.2982 5.28118 22.9417 3.90322 21.7203 2.65556Z" fill="#003087"/>
</g>
<g id="Group_12">
<path id="Vector_10" d="M10.0205 7.33301C10.0799 6.99464 10.3224 6.71746 10.6484 6.57708C10.797 6.51372 10.9624 6.47844 11.1358 6.47844H18.2088C19.0463 6.47844 19.8276 6.5274 20.5415 6.63035C20.7463 6.65987 20.9446 6.69371 21.1373 6.73258C21.3301 6.77074 21.5172 6.81394 21.6986 6.86145C21.7894 6.88521 21.8785 6.90969 21.966 6.93561C22.317 7.04072 22.6438 7.16311 22.9441 7.30637C23.2982 5.28118 22.9417 3.90394 21.7203 2.65628C20.3753 1.28264 17.9462 0.693726 14.8377 0.693726H5.81509C5.17991 0.693726 4.63949 1.10841 4.53991 1.67069L0.783434 23.0299C0.708754 23.4517 1.07252 23.8326 1.5479 23.8326H7.11838L8.51722 15.878L10.0205 7.33301Z" fill="#003087"/>
</g>
<g id="Group_13">
<path id="Vector_11" d="M22.944 7.30567C22.9167 7.46046 22.887 7.6174 22.8517 7.77939C21.6624 13.256 17.5912 15.1501 12.3917 15.1501H9.74417C9.10899 15.1501 8.57258 15.5648 8.47381 16.1271L7.11833 23.8319L6.73369 26.0176C6.66864 26.3862 6.98664 26.7203 7.40259 26.7203H12.0978C12.6535 26.7203 13.1264 26.3574 13.2132 25.8657L13.2589 25.6512L14.1439 20.6231L14.2009 20.3452C14.2876 19.8535 14.7606 19.4907 15.3163 19.4907H16.0189C20.5671 19.4907 24.1285 17.8341 25.1692 13.0429C25.6036 11.0407 25.3788 9.36902 24.2297 8.1948C23.8812 7.83915 23.4483 7.54541 22.944 7.30567Z" fill="#009CDE"/>
</g>
<g id="Group_14">
<path id="Vector_12" d="M21.6986 6.86073C21.5172 6.81321 21.3301 6.77001 21.1373 6.73186C20.9446 6.6937 20.7455 6.65986 20.5415 6.63035C19.8268 6.52668 19.0463 6.47772 18.208 6.47772H11.1359C10.9616 6.47772 10.7962 6.513 10.6484 6.57707C10.3216 6.71746 10.0799 6.99392 10.0205 7.33301L8.51724 15.878L8.47388 16.1271C8.57265 15.5648 9.10906 15.1501 9.74424 15.1501H12.3918C17.5913 15.1501 21.6625 13.2567 22.8518 7.77937C22.8871 7.61738 22.9168 7.46044 22.9441 7.30565C22.643 7.1631 22.317 7.03999 21.966 6.9356C21.8785 6.90968 21.7894 6.88449 21.6986 6.86073Z" fill="#012169"/>
</g>
</g>
</g>
</g>
</g>
</g>
</g>
<rect x="0.5" y="0.5" width="115" height="26.4141" stroke="#EEDABC"/>
</g>
<defs>
<clipPath id="clip0_236_77">
<rect width="116" height="27.4141" fill="white"/>
</clipPath>
</defs>
</svg>
