<svg width="121" height="121" viewBox="0 0 121 121" fill="none" xmlns="http://www.w3.org/2000/svg">
<g id="data-04">
<path id="Vector" d="M60.4996 87.725V57.475M99.2196 89.54C93.8735 89.54 89.5396 93.8739 89.5396 99.22C89.5396 104.566 93.8735 108.9 99.2196 108.9C104.566 108.9 108.9 104.566 108.9 99.22C108.9 93.8739 104.566 89.54 99.2196 89.54ZM99.2196 89.54L99.2196 61.71C99.2196 59.0369 97.0527 56.87 94.3796 56.87H26.6196C23.9465 56.87 21.7796 59.0369 21.7796 61.71L21.7796 89.54M21.7796 89.54C16.4335 89.54 12.0996 93.8739 12.0996 99.22C12.0996 104.566 16.4335 108.9 21.7796 108.9C27.1257 108.9 31.4596 104.566 31.4596 99.22C31.4596 93.8739 27.1257 89.54 21.7796 89.54ZM60.4996 108.9C55.1535 108.9 50.8196 104.566 50.8196 99.22C50.8196 93.8739 55.1535 89.54 60.4996 89.54C65.8457 89.54 70.1796 93.8739 70.1796 99.22C70.1796 104.566 65.8457 108.9 60.4996 108.9ZM30.2496 36.3H90.7496C94.0909 36.3 96.7996 33.5913 96.7996 30.25V18.15C96.7996 14.8087 94.0909 12.1 90.7496 12.1H30.2496C26.9083 12.1 24.1996 14.8087 24.1996 18.15V30.25C24.1996 33.5913 26.9083 36.3 30.2496 36.3Z" stroke="#EEDABC" stroke-width="10.0833" stroke-linecap="round"/>
</g>
</svg>
