<svg width="72" height="72" viewBox="0 0 72 72" fill="none" xmlns="http://www.w3.org/2000/svg">
<g id="Frame 1000000876">
<g id="Group 3455">
<g id="Vector">
<path fill-rule="evenodd" clip-rule="evenodd" d="M12.1928 36.3094C12.2285 36.3234 11.6072 37.0799 11.0651 37.9032C10.9128 38.1005 10.7885 38.3242 10.6674 38.537L10.6192 38.6162L10.5788 38.6768L10.5773 38.6799C10.5027 38.7498 10.6751 38.5867 10.6581 38.6038L10.6503 38.6178L10.5276 38.8321C10.4546 38.9766 10.3365 39.1242 10.2759 39.2531C10.2697 39.4504 10.2107 39.5389 10.1796 39.7502C10.1097 39.9319 10.1392 40.0842 10.0895 40.2317L10.088 40.2395C10.0911 39.7719 10.0895 40.1121 10.0895 40.0096V40.022L10.0911 40.0547L10.0926 40.1215L10.0973 40.2566L10.105 40.5238C10.1004 40.7754 10.1377 40.732 10.1377 40.732C10.0911 40.7304 10.1392 40.8609 10.1423 41.0147C10.1874 41.0923 10.1858 41.2725 10.2526 41.3844C10.4313 41.5242 10.3691 41.5009 10.3769 41.5661C10.3784 41.6314 10.481 41.6671 10.54 41.7354C10.6845 41.8318 10.8538 41.9203 11.034 41.9747C11.1955 41.9995 11.3897 42.0446 11.5388 42.0259C11.8557 42.012 12.0856 41.9079 12.0903 41.9187C12.0903 41.9187 12.0981 41.9731 12.0949 42.0787C12.0825 42.1782 12.0965 42.3692 12.0017 42.551C11.9272 42.756 11.7905 42.9844 11.5621 43.2112C11.3353 43.4224 11.0293 43.6399 10.6348 43.7688C10.4266 43.817 10.2449 43.8822 9.96524 43.8854C9.69029 43.89 9.3299 43.8263 9.23049 43.8248C8.72097 43.7253 8.24407 43.4147 7.79514 43.0652C7.42388 42.6644 7.0262 42.2496 6.82737 41.5444C6.71552 41.2166 6.61456 40.836 6.62698 40.7242L6.60368 40.457L6.59125 40.3234L6.58659 40.2566L6.58349 40.224L6.58349 39.9723L6.58815 39.9459C6.68756 39.396 6.78853 38.8259 7.06349 38.3832C7.26232 37.9187 7.66621 37.476 8.02505 37.111C8.18194 36.9867 8.30466 36.9075 8.45379 36.8174L8.66504 36.69L8.67747 36.6807C8.66194 36.6978 8.83592 36.5331 8.76446 36.6015L8.87941 36.544L9.01767 36.4834C9.37806 36.3141 9.72291 36.1976 10.0507 36.1494C10.6907 36.0282 11.2701 36.0671 11.6103 36.151C11.9722 36.2271 12.1928 36.3094 12.1928 36.3094Z" fill="url(#paint0_linear_0_114)"/>
<path fill-rule="evenodd" clip-rule="evenodd" d="M12.1928 36.3055C12.1928 36.3055 11.9722 36.3878 11.6103 36.4639C11.2701 36.5478 10.6907 36.5866 10.0507 36.4655C9.72291 36.4173 9.37806 36.3008 9.01767 36.1315L8.87941 36.0709L8.76446 36.0134C8.83592 36.0818 8.66194 35.9171 8.67747 35.9327L8.66504 35.9249L8.45379 35.7975C8.30466 35.7074 8.18194 35.6282 8.02505 35.5039C7.66621 35.1389 7.26232 34.6962 7.06349 34.2317C6.78853 33.789 6.68756 33.2189 6.58815 32.669L6.58349 32.6426L6.58349 32.3909L6.58659 32.3583L6.59125 32.2915L6.60368 32.1579L6.62698 31.8907C6.61456 31.7789 6.71552 31.3983 6.82737 31.0705C7.0262 30.3653 7.42388 29.9505 7.79514 29.5482C8.24407 29.2002 8.72097 28.8895 9.23049 28.7901C9.3299 28.7886 9.69029 28.7249 9.96524 28.7295C10.2449 28.7327 10.4266 28.7979 10.6348 28.8461C11.0293 28.975 11.3353 29.1925 11.5621 29.4037C11.7905 29.629 11.9272 29.8589 12.0017 30.0639C12.0965 30.2457 12.0825 30.4367 12.0949 30.5362C12.0981 30.6418 12.0903 30.6962 12.0903 30.6962C12.0856 30.707 11.8557 30.603 11.5388 30.589C11.3897 30.5703 11.1955 30.6138 11.034 30.6402C10.8538 30.6946 10.6845 30.7831 10.54 30.8795C10.481 30.9478 10.3784 30.9835 10.3769 31.0488C10.3691 31.114 10.4313 31.0892 10.2526 31.2305C10.1858 31.3408 10.1874 31.521 10.1423 31.6002C10.1392 31.754 10.0911 31.8845 10.1377 31.883C10.1377 31.883 10.1004 31.8395 10.105 32.0911L10.0973 32.3583L10.0926 32.4934L10.0911 32.5602L10.0895 32.5929V32.6053C10.0895 32.5028 10.0911 32.8429 10.088 32.3754L10.0895 32.3832C10.1392 32.5307 10.1097 32.683 10.1796 32.8647C10.2107 33.076 10.2697 33.1645 10.2759 33.3618C10.3365 33.4907 10.4546 33.6383 10.5276 33.7828L10.6503 33.9971L10.6581 34.0111C10.6751 34.0282 10.5027 33.8651 10.5773 33.935L10.5788 33.9381L10.6192 33.9987L10.6674 34.0764C10.7885 34.2907 10.9128 34.5144 11.0651 34.7117C11.6072 35.535 12.2285 36.2915 12.1928 36.3055Z" fill="url(#paint1_linear_0_114)"/>
<path fill-rule="evenodd" clip-rule="evenodd" d="M55.9704 40.7578C55.9704 40.7578 54.5368 37.8478 57.3171 36.2834C57.3171 36.2834 54.4065 37.8907 52.3651 35.8927C54.4068 33.8944 57.3171 35.5015 57.3171 35.5015C54.5371 33.9373 55.9704 31.0276 55.9704 31.0276C56.7374 35.0809 60.9414 35.7657 62.2617 35.881L62.66 35.8808C62.66 35.8808 62.5688 35.8813 62.4078 35.8924C62.5688 35.9036 62.66 35.9047 62.66 35.9047L62.262 35.9041C60.9411 36.0195 56.7374 36.7045 55.9704 40.7578Z" fill="url(#paint2_linear_0_114)"/>
<path fill-rule="evenodd" clip-rule="evenodd" d="M54.4203 30.162C54.4203 30.162 54.4471 30.0865 54.497 29.9442C54.5343 29.7967 54.6424 29.606 54.6532 29.3063C54.6637 29.1616 54.6979 28.9851 54.6883 28.808C54.6812 28.6309 54.6597 28.4381 54.6396 28.2277C54.5919 28.0241 54.5405 27.8075 54.4862 27.579C54.4089 27.3594 54.3147 27.1302 54.2124 26.89C53.9762 26.4338 53.6826 25.9468 53.2807 25.5048L53.1307 25.3357L53.0534 25.2516L53.0142 25.2094L52.9391 25.1448C52.8356 25.053 52.7306 24.9603 52.6246 24.8666C52.4096 24.6781 52.202 24.4908 51.9599 24.3036C51.4415 23.9429 50.8705 23.5505 50.3468 23.2579C49.8232 22.9529 49.2913 22.6434 48.7593 22.3338C48.5373 22.1943 48.2169 22.0083 48.0164 21.8601C47.7882 21.7095 47.5636 21.5398 47.3406 21.3728C46.9214 21.0214 46.5207 20.6681 46.2167 20.276C45.9161 19.878 45.6675 19.4958 45.5092 19.0405C45.4543 18.8761 45.393 18.6577 45.3703 18.4476C45.3342 18.2372 45.3342 18.0284 45.3373 17.8257C45.3521 17.4204 45.4285 17.0415 45.5532 16.7233C45.682 16.4079 45.8434 16.1461 46.0085 15.9465C46.1785 15.7549 46.338 15.6089 46.4591 15.5279C46.5823 15.4423 46.6476 15.3967 46.6476 15.3967C46.6476 15.3967 46.5672 15.4075 46.4169 15.4272C46.2672 15.4543 46.0399 15.5073 45.7756 15.6484C45.5156 15.7907 45.2033 16.0075 44.9326 16.3436C44.6572 16.6738 44.4074 17.1065 44.2537 17.6243C44.1782 17.8833 44.1191 18.1618 44.0957 18.4575C44.064 18.7535 44.0791 19.0556 44.1277 19.4179C44.2192 20.0102 44.4807 20.6592 44.8282 21.2333C44.9221 21.3741 45.0167 21.5154 45.1118 21.658C45.2116 21.7966 45.3259 21.9202 45.4346 22.0529C45.6481 22.3255 45.9028 22.5457 46.1511 22.7829C46.4101 22.9988 46.6645 23.2249 46.9559 23.419C47.2578 23.6395 47.4777 23.7701 47.7835 23.9657C48.3447 24.2768 48.9158 24.6008 49.4511 24.8675C49.9634 25.1346 50.4673 25.3976 50.9552 25.6521C51.1985 25.7919 51.4394 25.9687 51.6796 26.1135C51.7991 26.1892 51.9174 26.2644 52.0345 26.3383L52.0563 26.3522L52.0674 26.359C52.0529 26.3469 52.1075 26.3904 52.036 26.3331L52.0406 26.3365L52.0763 26.3648L52.1475 26.4218L52.2916 26.5321C52.6794 26.8225 52.9961 27.1558 53.2844 27.4755C53.415 27.6461 53.5394 27.81 53.6583 27.9659C53.7609 28.135 53.8582 28.2957 53.9497 28.447C54.019 28.6068 54.0791 28.7612 54.149 28.9044C54.2158 29.0482 54.2349 29.1801 54.2771 29.306C54.3652 29.5524 54.3661 29.7887 54.3892 29.9332C54.4092 30.0825 54.4203 30.162 54.4203 30.162Z" fill="url(#paint3_linear_0_114)"/>
<path fill-rule="evenodd" clip-rule="evenodd" d="M54.1168 43.7459C54.1168 43.7459 54.106 43.8256 54.0856 43.9753C54.0629 44.1195 54.0616 44.3554 53.9735 44.6018C53.9313 44.7284 53.9122 44.8596 53.8454 45.0035C53.7758 45.147 53.7157 45.3013 53.6461 45.4615C53.5549 45.6124 53.4573 45.7729 53.355 45.9423C53.2361 46.0982 53.1114 46.2617 52.9811 46.4327C52.6928 46.7524 52.3762 47.0857 51.9884 47.3761L51.8442 47.4864L51.7728 47.5431L51.7373 47.5717L51.7327 47.5751C51.8039 47.5175 51.7494 47.5609 51.7638 47.5495L51.7527 47.5563L51.7309 47.5702C51.6138 47.6441 51.4959 47.7189 51.376 47.7944C51.1361 47.9395 50.8952 48.1163 50.6513 48.2561C50.164 48.5105 49.6601 48.7736 49.1479 49.0406C48.6125 49.3074 48.0412 49.6317 47.48 49.9428C47.1744 50.1381 46.9542 50.2684 46.6523 50.4889C46.3613 50.6833 46.1068 50.9094 45.8478 51.1253C45.5995 51.3624 45.3448 51.5827 45.1314 51.8553C45.0226 51.988 44.9084 52.1115 44.8086 52.2501C44.7131 52.3924 44.6185 52.5344 44.5246 52.6746C44.1774 53.249 43.9153 53.898 43.8245 54.4903C43.7755 54.8529 43.7607 55.1547 43.7924 55.4507C43.8155 55.7461 43.875 56.0249 43.9501 56.2836C44.1038 56.802 44.3536 57.2347 44.6293 57.5646C44.9 57.9007 45.2121 58.1178 45.4723 58.2598C45.7363 58.4012 45.9636 58.4535 46.1133 58.4813C46.2639 58.5007 46.3443 58.5115 46.3443 58.5115C46.3443 58.5115 46.2784 58.4659 46.1558 58.3802C46.0345 58.2995 45.8752 58.1532 45.7052 57.9616C45.5401 57.7621 45.3787 57.5002 45.2499 57.1848C45.1252 56.8667 45.0485 56.4875 45.034 56.0825C45.0309 55.8798 45.0309 55.6709 45.0667 55.4609C45.0895 55.2502 45.1511 55.0321 45.2056 54.868C45.3639 54.4127 45.6122 54.0302 45.9134 53.6322C46.2171 53.2398 46.6181 52.8868 47.0374 52.5354C47.2604 52.3684 47.4846 52.199 47.7128 52.0478C47.9133 51.8996 48.234 51.7139 48.4561 51.5744C48.988 51.2648 49.5199 50.9552 50.0436 50.6503C50.5669 50.3574 51.1383 49.9653 51.6566 49.6046C51.8981 49.4173 52.1063 49.2301 52.3213 49.0416C52.4273 48.9479 52.532 48.8555 52.6355 48.7637L52.711 48.6987L52.7501 48.6565L52.8271 48.5721L52.9774 48.4033C53.3791 47.9617 53.6729 47.4744 53.9088 47.0179C54.0111 46.7783 54.1054 46.5485 54.183 46.3292C54.2369 46.1009 54.288 45.8841 54.3364 45.6805C54.3564 45.4701 54.378 45.2773 54.3847 45.0999C54.3943 44.9228 54.3604 44.7466 54.3499 44.6018C54.3391 44.3021 54.231 44.1115 54.1938 43.9639C54.1436 43.8219 54.1168 43.7459 54.1168 43.7459Z" fill="url(#paint4_linear_0_114)"/>
<path fill-rule="evenodd" clip-rule="evenodd" d="M50.9187 22.523C50.9187 22.523 50.8778 22.3982 50.7878 22.1943C50.7364 22.0948 50.7016 21.9633 50.6058 21.8373C50.5118 21.7083 50.4007 21.5583 50.2627 21.4018C50.1271 21.2472 49.9774 21.1135 49.8102 20.9617C49.6429 20.8092 49.4658 20.6814 49.2767 20.5391C49.0956 20.4029 48.8929 20.2631 48.713 20.1349C48.5282 20.0019 48.3453 19.8694 48.1731 19.7324C48.0025 19.5975 47.8441 19.4564 47.7015 19.3138C47.5682 19.173 47.424 19.0098 47.3405 18.8795C47.2774 18.7806 47.217 18.6777 47.1952 18.622C47.1613 18.5548 47.1218 18.4895 47.0981 18.403C47.0341 18.241 46.9989 18.0783 46.9725 17.9231C46.9669 17.8461 46.9641 17.7712 46.9546 17.6958C46.9586 17.6228 46.9626 17.5535 46.966 17.4885C46.9718 17.3514 47.0187 17.2448 47.0371 17.137C47.1268 16.939 47.1782 16.8259 47.1782 16.8259C47.1782 16.8259 47.149 16.8398 47.0944 16.8648C47.0427 16.8943 46.9531 16.9297 46.8554 17.0009C46.7781 17.0831 46.6432 17.1762 46.5609 17.3255C46.5166 17.3982 46.4661 17.4783 46.4186 17.5664C46.3835 17.6563 46.354 17.7549 46.3204 17.8593C46.2696 18.0679 46.2311 18.3066 46.2526 18.5567C46.2557 18.7908 46.357 19.1502 46.4322 19.3252C46.5483 19.607 46.6937 19.8251 46.8733 20.0478C47.0495 20.2665 47.2552 20.4531 47.4637 20.6259C47.6787 20.7879 47.8946 20.9386 48.1155 21.0645C48.3394 21.1979 48.5446 21.2989 48.7543 21.4021C48.9579 21.4979 49.155 21.5903 49.342 21.6781C49.5185 21.7677 49.7113 21.8386 49.8598 21.915C50.0018 21.9953 50.1472 22.0619 50.2808 22.1253C50.4121 22.1919 50.5202 22.2833 50.615 22.3394C50.802 22.4617 50.9187 22.523 50.9187 22.523Z" fill="url(#paint5_linear_0_114)"/>
<path fill-rule="evenodd" clip-rule="evenodd" d="M50.7412 51.4224C50.7412 51.4224 50.6245 51.4837 50.4375 51.6059C50.3426 51.662 50.2345 51.7535 50.103 51.8197C49.9696 51.8834 49.8242 51.95 49.6823 52.0304C49.5335 52.1065 49.341 52.1776 49.1645 52.2672C48.9775 52.355 48.7804 52.4474 48.5768 52.5432C48.367 52.6464 48.1619 52.7474 47.938 52.8808C47.7168 53.0065 47.5009 53.1571 47.2862 53.3194C47.0777 53.4922 46.8716 53.6786 46.6957 53.8976C46.5162 54.1203 46.3708 54.3383 46.2547 54.6202C46.1792 54.7954 46.0782 55.1546 46.0751 55.3887C46.0535 55.6388 46.092 55.8775 46.1429 56.086C46.1764 56.1904 46.206 56.289 46.2411 56.3789C46.2885 56.467 46.3388 56.5468 46.3834 56.6198C46.4653 56.7689 46.6006 56.8622 46.6779 56.9444C46.7752 57.0153 46.8652 57.051 46.9169 57.0806C46.9711 57.1058 47.0004 57.1191 47.0004 57.1191C47.0004 57.1191 46.9492 57.0063 46.8596 56.8083C46.8411 56.7005 46.7943 56.5939 46.7885 56.4568C46.7851 56.3919 46.7811 56.3226 46.7771 56.2496C46.7866 56.1741 46.7891 56.0989 46.7946 56.0225C46.8214 55.867 46.8565 55.7044 46.9206 55.5424C46.9443 55.4558 46.9837 55.3905 47.0176 55.3234C47.0395 55.2676 47.0999 55.1647 47.163 55.0659C47.2465 54.9356 47.3906 54.7723 47.524 54.6316C47.6666 54.4889 47.8249 54.3479 47.9956 54.213C48.1674 54.0762 48.3507 53.9434 48.5355 53.8104C48.7154 53.6823 48.9181 53.5424 49.0992 53.4063C49.2883 53.264 49.4654 53.1361 49.6327 52.9837C49.7999 52.8318 49.9493 52.6985 50.0851 52.5435C50.2231 52.3871 50.334 52.2367 50.4283 52.108C50.5241 51.982 50.5589 51.8505 50.6103 51.751C50.6999 51.5474 50.7412 51.4224 50.7412 51.4224Z" fill="url(#paint6_linear_0_114)"/>
<path fill-rule="evenodd" clip-rule="evenodd" d="M57.2687 28.6888C58.4131 29.4028 59.7422 29.7064 61.0469 30.048C62.352 30.3891 63.7365 31.0119 64.2709 32.2506C64.8518 33.5966 64.021 35.36 62.6141 35.7692L62.6293 35.7988C64.0363 36.208 64.867 37.9714 64.2865 39.317C63.7522 40.5557 62.3676 41.1785 61.0625 41.5196C59.7575 41.8617 58.4283 42.1652 57.2839 42.8792C53.5386 45.2176 53.3171 50.9561 53.2507 53.691L71.0406 35.9011L53.4672 18.9712C53.4841 21.6329 53.7098 26.4667 57.2687 28.6888Z" fill="url(#paint7_linear_0_114)"/>
<path d="M10.5996 34.6933C10.5996 34.6933 28.8234 34.6933 29.8174 34.6933C30.8115 34.6933 31.4742 34.0306 31.4742 34.0306C31.4742 34.0306 32.1368 34.6933 32.7995 34.6933C33.4622 34.6933 52.3488 34.6933 52.3488 34.6933L53.6741 35.3559V36.6813L52.3488 37.344C52.3488 37.344 33.4622 37.344 32.7995 37.344C32.1368 37.344 31.4742 38.0067 31.4742 38.0067C31.4742 38.0067 30.8115 37.344 29.8174 37.344C28.8234 37.344 10.5996 37.344 10.5996 37.344V34.6933Z" fill="url(#paint8_linear_0_114)"/>
</g>
</g>
</g>
<defs>
<linearGradient id="paint0_linear_0_114" x1="12.9028" y1="19.8062" x2="65.4989" y2="78.7693" gradientUnits="userSpaceOnUse">
<stop stop-color="#EEDABC"/>
<stop offset="1" stop-color="#987952"/>
</linearGradient>
<linearGradient id="paint1_linear_0_114" x1="12.9028" y1="19.8062" x2="65.4989" y2="78.7693" gradientUnits="userSpaceOnUse">
<stop stop-color="#EEDABC"/>
<stop offset="1" stop-color="#987952"/>
</linearGradient>
<linearGradient id="paint2_linear_0_114" x1="12.9028" y1="19.8062" x2="65.4989" y2="78.7693" gradientUnits="userSpaceOnUse">
<stop stop-color="#EEDABC"/>
<stop offset="1" stop-color="#987952"/>
</linearGradient>
<linearGradient id="paint3_linear_0_114" x1="12.9028" y1="19.8062" x2="65.4989" y2="78.7693" gradientUnits="userSpaceOnUse">
<stop stop-color="#EEDABC"/>
<stop offset="1" stop-color="#987952"/>
</linearGradient>
<linearGradient id="paint4_linear_0_114" x1="12.9028" y1="19.8062" x2="65.4989" y2="78.7693" gradientUnits="userSpaceOnUse">
<stop stop-color="#EEDABC"/>
<stop offset="1" stop-color="#987952"/>
</linearGradient>
<linearGradient id="paint5_linear_0_114" x1="12.9028" y1="19.8062" x2="65.4989" y2="78.7693" gradientUnits="userSpaceOnUse">
<stop stop-color="#EEDABC"/>
<stop offset="1" stop-color="#987952"/>
</linearGradient>
<linearGradient id="paint6_linear_0_114" x1="12.9028" y1="19.8062" x2="65.4989" y2="78.7693" gradientUnits="userSpaceOnUse">
<stop stop-color="#EEDABC"/>
<stop offset="1" stop-color="#987952"/>
</linearGradient>
<linearGradient id="paint7_linear_0_114" x1="12.9028" y1="19.8062" x2="65.4989" y2="78.7693" gradientUnits="userSpaceOnUse">
<stop stop-color="#EEDABC"/>
<stop offset="1" stop-color="#987952"/>
</linearGradient>
<linearGradient id="paint8_linear_0_114" x1="12.9028" y1="19.8062" x2="65.4989" y2="78.7693" gradientUnits="userSpaceOnUse">
<stop stop-color="#EEDABC"/>
<stop offset="1" stop-color="#987952"/>
</linearGradient>
</defs>
</svg>
